<svg width="480" height="200" xmlns="http://www.w3.org/2000/svg">

 <g>
  <title>background</title>
  <rect fill="none" id="canvas_background" height="202" width="482" y="-1" x="-1"/>
 </g>
 <g>
  <title>Layer 1</title>
  <path stroke="null" id="svg_2" fill="#ffffff" d="m70.66524,151.520449c-2.210966,0 -4.003481,1.792514 -4.003481,4.003481s1.792514,4.003481 4.003481,4.003481s4.003481,-1.792514 4.003481,-4.003481s-1.791972,-4.003481 -4.003481,-4.003481zm-5.703307,-8.060081c0.392434,-0.185918 0.794625,-0.355034 1.207115,-0.50301l0,-13.743332c-4.0192,0.681882 -7.731607,2.263544 -10.925285,4.528172l9.71817,9.71817zm5.703307,19.420079c-0.937181,0 -1.696574,0.759393 -1.696574,1.697116c0,0.937181 0.759393,1.696574 1.696574,1.696574s1.696574,-0.759393 1.696574,-1.696574c0.000542,-0.937723 -0.759393,-1.697116 -1.696574,-1.697116zm4.496734,5.208428l0,13.743874c4.0192,-0.682424 7.731607,-2.264086 10.925285,-4.528714l-9.71817,-9.71817c-0.392434,0.185918 -0.794083,0.355034 -1.207115,0.50301zm8.068212,-8.069296c-0.147976,0.41249 -0.314381,0.816307 -0.5003,1.208199l9.717628,9.71817c2.265712,-3.193678 3.845748,-6.90717 4.528172,-10.926369l-13.745501,0zm-12.564945,-48.196791c-24.135254,0 -43.700599,19.565345 -43.700599,43.700599c0,24.134712 19.565345,43.700057 43.700599,43.700057s43.700599,-19.565345 43.700599,-43.700057c0,-24.135254 -19.565345,-43.700599 -43.700599,-43.700599zm0,74.914848c-17.239467,0 -31.214249,-13.974782 -31.214249,-31.214249s13.975324,-31.214791 31.214249,-31.214791s31.214791,13.975324 31.214791,31.214791s-13.975324,31.214249 -31.214791,31.214249zm7.357602,-31.214791c0,0.937181 0.759393,1.696574 1.696574,1.696574s1.696574,-0.759393 1.696574,-1.696574c0,-0.937181 -0.759393,-1.697116 -1.696574,-1.697116s-1.696574,0.759935 -1.696574,1.697116zm-7.357602,-7.357602c0.937181,0 1.696574,-0.759393 1.696574,-1.696574c0,-0.937181 -0.759393,-1.697116 -1.696574,-1.697116s-1.696574,0.759393 -1.696574,1.697116c0,0.937181 0.759393,1.696574 1.696574,1.696574zm15.422561,-14.423046c-3.193678,-2.26517 -6.906086,-3.84629 -10.925285,-4.528172l0,13.743332c0.41249,0.147434 0.814681,0.316549 1.207657,0.502468l9.717628,-9.717628zm-27.486123,16.076257l-9.717628,-9.71817c-2.265712,3.193678 -3.845748,6.90717 -4.528172,10.926369l13.745501,0c0.147434,-0.411948 0.313839,-0.815765 0.5003,-1.208199zm-0.501384,10.201125l-13.744417,0c0.681882,4.0192 2.263002,7.732691 4.528172,10.925827l9.71817,-9.718712c-0.185918,-0.391892 -0.354492,-0.794625 -0.501926,-1.207115zm-2.857074,17.284998c3.193678,2.265712 6.906628,3.84629 10.925827,4.528172l0,-13.743874c-0.41249,-0.147434 -0.815223,-0.316007 -1.208199,-0.502468l-9.717628,9.71817zm8.064959,-21.781732c0,-0.937181 -0.759393,-1.697116 -1.696574,-1.697116s-1.696574,0.759393 -1.696574,1.697116c0,0.937181 0.759393,1.696574 1.696574,1.696574s1.696574,-0.759393 1.696574,-1.696574zm19.922547,-4.496192l13.744417,0c-0.682424,-4.0192 -2.263002,-7.732691 -4.528172,-10.925827l-9.71817,9.718712c0.185918,0.391892 0.354492,0.794625 0.501926,1.207115zm313.435247,-1.755114c-2.210424,0 -4.002939,1.793056 -4.002939,4.003481c0,2.210966 1.792514,4.003481 4.002939,4.003481c2.210966,0 4.003481,-1.792514 4.003481,-4.003481c0,-2.210424 -1.791972,-4.003481 -4.003481,-4.003481zm4.497276,16.568968l0,13.743332c4.018658,-0.681882 7.731607,-2.263544 10.924743,-4.528172l-9.718712,-9.718712c-0.391892,0.186461 -0.793541,0.356118 -1.206031,0.503552zm-4.497276,-5.208428c-0.937181,0 -1.696574,0.759393 -1.696574,1.696574c0,0.937181 0.759393,1.697116 1.696574,1.697116c0.937181,0 1.697116,-0.759393 1.697116,-1.697116c0,-0.937181 -0.759393,-1.696574 -1.697116,-1.696574zm81.017636,-25.695235c2.11069,-13.204548 -0.079137,-14.343367 -8.820558,-33.812229c-2.373577,-5.285939 -8.647648,-8.503467 -13.721109,-11.271105c-26.516962,-14.464241 -92.724538,-23.431691 -97.027222,-23.521669c-13.479361,-13.423531 -35.545662,-38.669417 -65.160361,-58.864067c-5.524435,-3.767153 -25.006306,-4.350926 -25.006306,-4.350926s-159.861706,-6.125553 -197.974994,2.940547c-3.287993,0.781616 -5.573218,0.508972 -8.330557,1.960004c-0.449348,0.236328 -8.37121,8.420535 -8.820558,9.310559c-0.439049,0.869426 -3.033236,3.701566 -3.920007,4.900551c-5.881637,7.950048 -13.091263,15.798734 -18.131659,24.501671c-2.213135,3.822441 -3.238667,7.460047 -5.390552,11.271105c-2.071121,3.668502 -9.606511,6.490886 -10.780562,13.230566c-0.563718,3.233789 -4.241435,2.025048 -4.41055,6.860554c1.679771,0.518729 1.882492,1.132314 3.920007,1.470003c-2.94651,10.714433 -4.754743,29.840729 -4.91085,31.85602c0.003794,-0.001084 0.007046,-0.00271 0.010841,-0.003794c-0.024934,0.244458 -0.028186,0.230907 -0.010841,0.003794c-9.219497,2.894474 -8.363621,19.46019 -9.224917,16.458393c1.108464,4.408924 4.162297,10.151799 5.315209,14.900038c0.98759,4.067983 -2.29173,5.803041 -2.450546,9.80056c0.715488,0.41791 1.404958,4.807863 1.960004,5.39001c2.330756,6.415543 20.569739,12.221836 20.569739,12.221836l1.807149,0.002168c-1.552934,-4.605683 -2.395259,-9.539298 -2.395259,-14.669131c0,-25.342369 20.543721,-45.88609 45.88609,-45.88609s45.88609,20.543721 45.88609,45.88609c0,5.169943 -0.855875,10.140417 -2.432117,14.777538l240.047858,0.298662c-2.181154,-5.346105 -3.386643,-11.193593 -3.386643,-17.324567c0,-25.341827 20.543721,-45.885548 45.885548,-45.885548c25.342369,0 45.88609,20.543721 45.88609,45.885548c0,6.171084 -1.221208,12.055431 -3.430006,17.429722l3.768237,0.004878c0,0 28.168547,2.618578 31.852768,-6.370554c1.512282,-1.687359 2.072747,-10.223348 1.960004,-15.19057c0.054204,-5.109777 1.086241,-4.123813 2.450546,-7.351097c1.325279,-3.134054 -1.958377,-5.426868 -1.470003,-6.85947zm-320.483889,-76.445559c-0.898696,0.629846 -0.839072,0.964283 -1.960546,1.470545c-3.56931,2.704762 -38.409782,-0.980544 -85.756118,-0.980544c0.805466,1.149117 -5.542322,0.157733 -0.490001,-10.781104c6.867601,-14.8686 17.34137,-25.286539 16.764643,-25.495765c13.91299,-2.09226 51.19371,-1.484096 71.442563,-0.965909c-0.410864,11.761105 -0.243374,18.131117 -0.000542,36.752777zm141.620555,11.271105c-0.730123,-1.040168 -3.026731,-2.363821 -3.430006,-3.430006c-0.466151,-1.232591 0.766439,-3.66796 0,-5.390552c-2.109064,-4.739566 -9.100791,-7.931076 -16.171113,-7.840556c-1.684649,1.951331 -4.22951,2.819673 -5.390552,5.39001c-0.321428,0.711694 -1.559981,7.451374 -1.470003,7.841098c0.24229,1.052635 0.842325,1.249936 0.994637,1.791972c1.259693,0.050409 0.648818,0.193507 -0.014635,0.658032c0.067755,-0.280233 0.063418,-0.485665 0.014635,-0.658032c-3.533535,-0.141471 -21.805582,0.449348 -95.081854,-3.262517c-2.029926,-38.570767 -3.850626,-39.834254 0.490001,-46.062794c42.878872,0 88.206664,-0.490001 88.206664,-0.490001s32.251165,39.36756 42.142787,51.943888c-1.747525,0.836904 -7.438365,-0.36479 -10.290561,-0.490543zm30.872224,-3.920549c-15.915814,-12.767125 -36.92135,-40.301489 -47.043337,-48.513882c-3.432174,0 8.030811,-0.195133 14.21111,-1.470003c18.445498,16.273558 37.542524,30.99364 54.297952,50.139449c-7.934871,0.362622 -14.728213,5.248538 -21.465725,-0.155564zm66.973473,43.733121c-24.134712,0 -43.700057,19.565345 -43.700057,43.700057c0,24.135254 19.565345,43.700599 43.700057,43.700599c24.135254,0 43.700599,-19.565345 43.700599,-43.700599c0,-24.135254 -19.564803,-43.700057 -43.700599,-43.700057zm0,74.914848c-17.239467,0 -31.214249,-13.975324 -31.214249,-31.214791s13.974782,-31.214249 31.214249,-31.214249s31.214791,13.974782 31.214791,31.214249s-13.975324,31.214791 -31.214791,31.214791zm12.064646,-25.509858l9.717628,9.717628c2.265712,-3.193678 3.845748,-6.906628 4.528172,-10.925827l-13.744959,0c-0.147976,0.411948 -0.314923,0.815765 -0.500842,1.208199zm0.500842,-10.201667l13.744417,0c-0.682424,-4.0192 -2.263544,-7.732149 -4.528172,-10.925285l-9.71817,9.71817c0.185918,0.392434 0.354492,0.794625 0.501926,1.207115zm-18.268252,-7.565744c0.392976,-0.185918 0.794625,-0.355034 1.207115,-0.50301l0,-13.743874c-4.0192,0.682424 -7.731607,2.264086 -10.925285,4.528172l9.71817,9.718712zm-1.654295,12.061936c0,-0.937181 -0.759393,-1.696574 -1.697116,-1.696574c-0.937181,0 -1.696574,0.759393 -1.696574,1.696574c0,0.937181 0.759393,1.697116 1.696574,1.697116c0.937723,0 1.697116,-0.759935 1.697116,-1.697116zm7.35706,-7.35706c0.937181,0 1.697116,-0.759393 1.697116,-1.697116c0,-0.937181 -0.759393,-1.696574 -1.697116,-1.696574c-0.937181,0 -1.696574,0.759393 -1.696574,1.696574c0.000542,0.937181 0.759935,1.697116 1.696574,1.697116zm15.422561,-14.42413c-3.193136,-2.26517 -6.906086,-3.845748 -10.924743,-4.528172l0,13.743874c0.41249,0.147434 0.814681,0.316007 1.207115,0.501926l9.717628,-9.717628zm-8.064417,21.78119c0,0.937181 0.759393,1.697116 1.697116,1.697116c0.937181,0 1.696574,-0.759393 1.696574,-1.697116c0,-0.937181 -0.759393,-1.696574 -1.696574,-1.696574c-0.937723,0 -1.697116,0.759393 -1.697116,1.696574zm-19.421164,-5.704933l-9.71817,-9.717628c-2.265712,3.193678 -3.845748,6.906628 -4.528172,10.925827l13.744959,0c0.148518,-0.411948 0.314923,-0.815223 0.501384,-1.208199zm-3.358999,27.486665c3.193678,2.26517 6.906628,3.84629 10.925827,4.528172l0,-13.743332c-0.413032,-0.147434 -0.815223,-0.316549 -1.208199,-0.502468l-9.717628,9.717628zm2.857074,-17.284456l-13.743874,0c0.682424,4.0192 2.263002,7.732149 4.528172,10.925285l9.71817,-9.71817c-0.185918,-0.392434 -0.355034,-0.795167 -0.502468,-1.207115z"/>
 </g>
</svg>
