<svg width="48" height="48" xmlns="http://www.w3.org/2000/svg">

 <g>
  <title>background</title>
  <rect fill="none" id="canvas_background" height="402" width="582" y="-1" x="-1"/>
 </g>
 <g>
  <title>Layer 1</title>
  <path fill="#ffffff" id="svg_2" d="m19,38c-2.2,0 -4,1.8 -4,4s1.8,4 4,4s4,-1.8 4,-4s-1.8,-4 -4,-4zm0,6c-1.1,0 -2,-0.9 -2,-2s0.9,-2 2,-2s2,0.9 2,2s-0.9,2 -2,2z"/>
  <path fill="#ffffff" id="svg_3" d="m37,38c-2.2,0 -4,1.8 -4,4s1.8,4 4,4s4,-1.8 4,-4s-1.8,-4 -4,-4zm0,6c-1.1,0 -2,-0.9 -2,-2s0.9,-2 2,-2s2,0.9 2,2s-0.9,2 -2,2z"/>
  <path fill="#ffffff" id="svg_4" d="m43.9,9.1c-0.6,-0.7 -1.4,-1.1 -2.3,-1.1l-28.8,0l-0.6,-3.5c-0.2,-1.5 -1.4,-2.5 -2.9,-2.5l-7.3,0l0,2l7.3,0c0.5,0 0.9,0.4 1,0.9l4.5,28.6c0.3,1.5 1.5,2.5 3,2.5l22.2,0l0,-2l-22.2,0c-0.5,0 -0.9,-0.4 -1,-0.9l-0.5,-3.1l22.9,0c1.5,0 2.7,-1 3,-2.6l2.4,-16c0.1,-0.8 -0.1,-1.6 -0.7,-2.3zm-16.9,10.9l0,8l-4.1,0l-1.2,-8l5.3,0zm-5.6,-2l-1.2,-8l6.8,0l0,8l-5.6,0zm7.6,2l5.3,0l-1.2,8l-4.1,0l0,-8zm0,-2l0,-8l6.8,0l-1.2,8l-5.6,0zm-10.9,-8l1.2,8l-4.9,0l-1.3,-8l5,0zm-3.4,10l4.9,0l1.2,8l-4.8,0l-1.3,-8zm25.5,7.1c-0.1,0.5 -0.5,0.9 -1,0.9l-4,0l1.2,-8l4.9,0l-1.1,7.1zm2.4,-15.9l-1,6.8l-4.9,0l1.2,-8l3.7,0c0.3,0 0.6,0.1 0.8,0.4c0.1,0.1 0.3,0.4 0.2,0.8z"/>
 </g>
</svg>