<svg width="480" height="605" xmlns="http://www.w3.org/2000/svg" preserveAspectRatio="xMidYMid meet">

 <g>
  <title>background</title>
  <rect fill="none" id="canvas_background" height="607" width="482" y="-1" x="-1"/>
 </g>
 <g>
  <title>Layer 1</title>
  <g stroke="null" id="svg_4">
   <path stroke="null" id="svg_2" d="m199.129099,10.919204c-60.782359,5.868642 -127.014171,26.828076 -175.011275,55.961689c-18.444302,11.1085 -19.911462,12.366066 -20.540245,19.282679c-0.419189,5.868642 20.74984,54.494529 112.342567,255.705097c94.317454,207.707993 113.809728,248.788484 118.420803,251.51321c12.785255,7.126208 7.545396,17.186736 129.738897,-251.51321c91.592727,-201.210568 112.761756,-249.836455 112.342567,-255.705097c-0.628783,-6.916613 -2.095943,-8.174179 -20.540245,-19.282679c-71.681265,-43.176434 -168.304256,-64.345463 -256.753069,-55.961689zm75.453963,27.03767c22.845783,2.095943 49.045076,6.497425 64.345463,10.479717l7.754991,2.095943l-3.143915,8.802962c-6.078236,17.186736 -2.095943,28.924019 9.850934,28.924019c7.126208,0 12.994849,-6.916613 16.557953,-19.911462c1.46716,-5.239859 2.934321,-9.431745 3.353509,-9.431745c3.143915,0 37.098198,14.881198 53.446557,23.474566l20.330651,10.479717l-10.479717,22.217c-5.659047,12.366066 -10.479717,22.636189 -10.898906,22.845783c-0.209594,0.419189 -9.64134,-3.143915 -20.74984,-7.754991c-45.062783,-18.444302 -103.749199,-31.439151 -141.266586,-31.439151l-10.898906,0l-0.628783,-11.946877c-0.628783,-10.689311 -1.257566,-12.366066 -6.28783,-15.300387c-5.239859,-2.724726 -6.497425,-2.724726 -11.527689,0c-5.239859,2.934321 -5.868642,4.611076 -6.497425,15.300387l-0.628783,11.946877l-10.898906,0c-37.517387,0 -96.203803,12.994849 -141.266586,31.439151c-11.1085,4.611076 -20.540245,8.174179 -20.74984,7.754991c-0.419189,-0.209594 -5.239859,-10.479717 -10.898906,-22.845783l-10.479717,-22.217l20.330651,-10.479717c16.348359,-8.593368 50.302642,-23.474566 53.446557,-23.474566c0.419189,0 1.886349,4.191887 3.353509,9.431745c3.563104,12.785255 9.431745,19.911462 16.138764,19.911462c12.366066,0 16.348359,-11.527689 10.270123,-28.924019l-3.143915,-8.802962l7.754991,-2.095943c39.194142,-10.479717 90.125567,-14.46201 133.511596,-10.479717zm20.959434,91.173539c24.941727,3.563104 43.386029,7.545396 66.651001,14.881198c24.941727,7.754991 52.188991,19.911462 51.141019,22.636189c-1.46716,3.563104 -83.837737,184.652615 -84.256925,185.281398c-0.209594,0.209594 -4.82067,-1.46716 -10.060528,-3.772698c-24.103349,-10.689311 -47.368321,-6.707019 -65.393435,11.1085c-29.343208,29.552802 -21.378623,78.388284 15.509981,95.784614c5.868642,2.724726 10.479717,5.659047 10.270123,6.28783c-6.28783,15.090793 -38.355765,83.837737 -39.403736,83.837737c-0.628783,0 -19.701868,-40.661302 -42.338057,-90.544756l-41.290085,-90.544756l5.868642,-3.563104c9.64134,-5.868642 22.845783,-22.636189 26.618481,-33.744689c4.401481,-13.623632 3.353509,-41.290085 -2.095943,-51.979397c-7.545396,-14.46201 -17.815519,-24.732132 -31.648746,-31.648746c-11.318094,-5.449453 -15.719576,-6.497425 -28.714425,-6.497425c-8.383774,0 -17.815519,1.047972 -20.74984,2.095943c-5.239859,2.095943 -5.449453,1.886349 -22.007406,-34.583066c-9.012557,-20.121057 -16.767547,-37.517387 -17.186736,-38.355765c-1.46716,-3.772698 52.398585,-23.474566 84.047331,-30.600774c40.242114,-9.222151 104.168388,-11.946877 145.039284,-6.078236zm-159.2917,136.236322c22.845783,5.030264 35.002255,34.163878 23.893755,57.009661c-3.982292,8.174179 -13.204444,17.186736 -15.509981,15.090793c-1.047972,-1.047972 -32.487123,-70.633293 -32.487123,-71.890859c0,-1.257566 10.689311,-2.724726 14.671604,-2.095943c1.676755,0.209594 6.078236,1.047972 9.431745,1.886349zm169.771417,106.893114c4.191887,1.676755 7.964585,4.401481 8.593368,5.868642c0.628783,1.676755 -4.191887,14.881198 -10.689311,29.343208l-11.946877,26.199293l-6.497425,-1.886349c-23.264972,-6.707019 -29.762397,-36.67901 -11.527689,-53.656151c9.64134,-9.012557 20.121057,-10.898906 32.067934,-5.868642z" fill="#ffffff"/>
   <path stroke="null" id="svg_3" d="m269.343204,165.599828c-17.186736,5.239859 -35.211849,23.055378 -41.080491,40.451708c-7.126208,21.797812 -1.676755,47.577916 14.042821,65.393435c16.557953,19.073085 49.464265,24.941727 73.567614,13.204444c21.169029,-10.270123 33.115906,-28.714425 34.792661,-53.027368c1.46716,-21.588217 -3.353509,-34.163878 -18.234708,-49.25467c-7.964585,-7.964585 -15.090793,-12.785255 -22.007406,-15.090793c-10.689311,-3.563104 -31.648746,-4.401481 -41.080491,-1.676755zm36.469415,30.39118c27.876047,16.348359 22.007406,57.848038 -9.222151,66.231812c-15.719576,4.191887 -34.792661,-5.239859 -41.080491,-20.330651c-13.414038,-31.85834 20.959434,-63.087897 50.302642,-45.901161z" fill="#ffffff"/>
  </g>
 </g>
</svg>
